HIERARCHY
ROOT Hips
{
    OFFSET   0.000000   0.000000   0.000000
    CHANNELS 6 Xposition Yposition Zposition Zrotation Xrotation Yrotation
    JOINT Chest
    {
        OFFSET   0.000000   8.007230   0.000000
        CHANNELS 3 Zrotation Xrotation Yrotation
        JOINT Chest2
        {
            OFFSET   0.000000  22.077100   0.000000
            CHANNELS 3 Zrotation Xrotation Yrotation
            JOINT Neck
            {
                OFFSET   0.000000  23.254800  -0.000021
                CHANNELS 3 Zrotation Xrotation Yrotation
                JOINT Head
                {
                    OFFSET   0.000000  14.370000   1.956610
                    CHANNELS 3 Zrotation Xrotation Yrotation
                    End Site
                    {
                        OFFSET   0.000000  19.566000   0.000000
                    }
                }
            }
            JOINT LeftCollar
            {
                OFFSET   3.911900  19.017000  -0.467063
                CHANNELS 3 Zrotation Xrotation Yrotation
                JOINT LeftShoulder
                {
                    OFFSET  10.383700   0.000000   0.000000
                    CHANNELS 3 Zrotation Xrotation Yrotation
                    JOINT LeftElbow
                    {
                        OFFSET  26.662100   0.001529   0.000325
                        CHANNELS 3 Zrotation Xrotation Yrotation
                        JOINT LeftWrist
                        {
                            OFFSET  28.869000  -0.000011  -0.000096
                            CHANNELS 3 Zrotation Xrotation Yrotation
                            JOINT LeftFinger0
                            {
                                OFFSET   2.044650  -2.323460   3.252850
                                CHANNELS 3 Zrotation Xrotation Yrotation
                                JOINT LeftFinger01
                                {
                                    OFFSET   3.088130   0.000000   0.000000
                                    CHANNELS 3 Zrotation Xrotation Yrotation
                                    JOINT LeftFinger02
                                    {
                                        OFFSET   2.639460   0.000000   0.000000
                                        CHANNELS 3 Zrotation Xrotation Yrotation
                                        End Site
                                        {
                                            OFFSET   2.582190   0.000000   0.000000
                                        }
                                    }
                                }
                            }
                            JOINT LeftFinger1
                            {
                                OFFSET   8.364480   0.000000   3.252850
                                CHANNELS 3 Zrotation Xrotation Yrotation
                                JOINT LeftFinger11
                                {
                                    OFFSET   4.646930   0.000000   0.000000
                                    CHANNELS 3 Zrotation Xrotation Yrotation
                                    JOINT LeftFinger12
                                    {
                                        OFFSET   2.323460   0.000000   0.000000
                                        CHANNELS 3 Zrotation Xrotation Yrotation
                                        End Site
                                        {
                                            OFFSET   2.273050   0.000000   0.000000
                                        }
                                    }
                                }
                            }
                            JOINT LeftFinger2
                            {
                                OFFSET   8.364480   0.000016   1.078090
                                CHANNELS 3 Zrotation Xrotation Yrotation
                                JOINT LeftFinger21
                                {
                                    OFFSET   5.111620   0.000000   0.000000
                                    CHANNELS 3 Zrotation Xrotation Yrotation
                                    JOINT LeftFinger22
                                    {
                                        OFFSET   2.788160   0.000017   0.000000
                                        CHANNELS 3 Zrotation Xrotation Yrotation
                                        End Site
                                        {
                                            OFFSET   2.727660   0.000000   0.000000
                                        }
                                    }
                                }
                            }
                            JOINT LeftFinger3
                            {
                                OFFSET   7.899780   0.000015  -1.078090
                                CHANNELS 3 Zrotation Xrotation Yrotation
                                JOINT LeftFinger31
                                {
                                    OFFSET   4.646920   0.000000   0.000000
                                    CHANNELS 3 Zrotation Xrotation Yrotation
                                    JOINT LeftFinger32
                                    {
                                        OFFSET   2.323470   0.000000   0.000000
                                        CHANNELS 3 Zrotation Xrotation Yrotation
                                        End Site
                                        {
                                            OFFSET   2.273050   0.000000   0.000000
                                        }
                                    }
                                }
                            }
                            JOINT LeftFinger4
                            {
                                OFFSET   7.435090   0.000000  -3.252850
                                CHANNELS 3 Zrotation Xrotation Yrotation
                                JOINT LeftFinger41
                                {
                                    OFFSET   3.717550   0.000000   0.000000
                                    CHANNELS 3 Zrotation Xrotation Yrotation
                                    JOINT LeftFinger42
                                    {
                                        OFFSET   1.858760   0.000000   0.000000
                                        CHANNELS 3 Zrotation Xrotation Yrotation
                                        End Site
                                        {
                                            OFFSET   1.818440   0.000000   0.000000
                                        }
                                    }
                                }
                            }
                        }
                    }
                }
            }
            JOINT RightCollar
            {
                OFFSET  -3.911900  19.017000  -0.467062
                CHANNELS 3 Zrotation Xrotation Yrotation
                JOINT RightShoulder
                {
                    OFFSET -10.383700   0.000015   0.000000
                    CHANNELS 3 Zrotation Xrotation Yrotation
                    JOINT RightElbow
                    {
                        OFFSET -26.662100   0.001341   0.000385
                        CHANNELS 3 Zrotation Xrotation Yrotation
                        JOINT RightWrist
                        {
                            OFFSET -28.869000   0.000025  -0.000080
                            CHANNELS 3 Zrotation Xrotation Yrotation
                            JOINT RightFinger0
                            {
                                OFFSET  -2.044650  -2.323490   3.252850
                                CHANNELS 3 Zrotation Xrotation Yrotation
                                JOINT RightFinger01
                                {
                                    OFFSET  -3.088130   0.000000   0.000000
                                    CHANNELS 3 Zrotation Xrotation Yrotation
                                    JOINT RightFinger02
                                    {
                                        OFFSET  -2.639460   0.000000   0.000000
                                        CHANNELS 3 Zrotation Xrotation Yrotation
                                        End Site
                                        {
                                            OFFSET  -2.582190   0.000000   0.000000
                                        }
                                    }
                                }
                            }
                            JOINT RightFinger1
                            {
                                OFFSET  -8.364480   0.000000   3.252850
                                CHANNELS 3 Zrotation Xrotation Yrotation
                                JOINT RightFinger11
                                {
                                    OFFSET  -4.646930   0.000000   0.000000
                                    CHANNELS 3 Zrotation Xrotation Yrotation
                                    JOINT RightFinger12
                                    {
                                        OFFSET  -2.323470   0.000000   0.000000
                                        CHANNELS 3 Zrotation Xrotation Yrotation
                                        End Site
                                        {
                                            OFFSET  -2.273050   0.000000   0.000000
                                        }
                                    }
                                }
                            }
                            JOINT RightFinger2
                            {
                                OFFSET  -8.364480   0.000000   1.078090
                                CHANNELS 3 Zrotation Xrotation Yrotation
                                JOINT RightFinger21
                                {
                                    OFFSET  -5.111610   0.000000   0.000000
                                    CHANNELS 3 Zrotation Xrotation Yrotation
                                    JOINT RightFinger22
                                    {
                                        OFFSET  -2.788160   0.000000   0.000000
                                        CHANNELS 3 Zrotation Xrotation Yrotation
                                        End Site
                                        {
                                            OFFSET  -2.727660   0.000000   0.000000
                                        }
                                    }
                                }
                            }
                            JOINT RightFinger3
                            {
                                OFFSET  -7.899780   0.000000  -1.078090
                                CHANNELS 3 Zrotation Xrotation Yrotation
                                JOINT RightFinger31
                                {
                                    OFFSET  -4.646920   0.000000   0.000000
                                    CHANNELS 3 Zrotation Xrotation Yrotation
                                    JOINT RightFinger32
                                    {
                                        OFFSET  -2.323470   0.000000   0.000000
                                        CHANNELS 3 Zrotation Xrotation Yrotation
                                        End Site
                                        {
                                            OFFSET  -2.273050   0.000000   0.000000
                                        }
                                    }
                                }
                            }
                            JOINT RightFinger4
                            {
                                OFFSET  -7.435090   0.000000  -3.252850
                                CHANNELS 3 Zrotation Xrotation Yrotation
                                JOINT RightFinger41
                                {
                                    OFFSET  -3.717550   0.000000   0.000000
                                    CHANNELS 3 Zrotation Xrotation Yrotation
                                    JOINT RightFinger42
                                    {
                                        OFFSET  -1.858770   0.000000   0.000000
                                        CHANNELS 3 Zrotation Xrotation Yrotation
                                        End Site
                                        {
                                            OFFSET  -1.818440   0.000000   0.000000
                                        }
                                    }
                                }
                            }
                        }
                    }
                }
            }
        }
    }
    JOINT LeftHip
    {
        OFFSET   9.783010   0.000000   0.000000
        CHANNELS 3 Zrotation Xrotation Yrotation
        JOINT LeftKnee
        {
            OFFSET   0.000070 -41.789100   0.000028
            CHANNELS 3 Zrotation Xrotation Yrotation
            JOINT LeftAnkle
            {
                OFFSET   0.000087 -41.133200  -0.000100
                CHANNELS 3 Zrotation Xrotation Yrotation
                JOINT LeftToe
                {
                    OFFSET   0.000000  -6.358960  14.674500
                    CHANNELS 3 Zrotation Xrotation Yrotation
                    End Site
                    {
                        OFFSET   0.000000   0.000000   3.913200
                    }
                }
            }
        }
    }
    JOINT RightHip
    {
        OFFSET  -9.783020   0.000000   0.000000
        CHANNELS 3 Zrotation Xrotation Yrotation
        JOINT RightKnee
        {
            OFFSET   0.000044 -41.789100  -0.000870
            CHANNELS 3 Zrotation Xrotation Yrotation
            JOINT RightAnkle
            {
                OFFSET  -0.000090 -41.133200  -0.000245
                CHANNELS 3 Zrotation Xrotation Yrotation
                JOINT RightToe
                {
                    OFFSET   0.000000  -6.358960  14.674500
                    CHANNELS 3 Zrotation Xrotation Yrotation
                    End Site
                    {
                        OFFSET   0.000000   0.000000   3.913200
                    }
                }
            }
        }
    }
}
MOTION
Frames: 4
Frame Time:   0.016667
  0.175685  89.912600   0.527084  -0.460816  -0.094212  -1.918680  -0.341622   1.495050   0.325936  -0.692104   2.988090   0.661123   1.217570  -0.108807  -0.003446   1.997870  -0.220574   0.163958  -3.147240  -0.409864   3.252240 -72.278700  17.293900   1.239770  -2.632810  -4.341690 -16.631400  11.419500  -8.846890   8.171150  50.804400  41.607100 -83.850400 -19.908700  -0.007516   0.003664  -4.953790  -0.003862   0.001553 -30.193600   5.055270  -8.608600 -25.016900   0.002829   0.002356 -17.511800   0.001398   0.002153 -28.377300   2.168820  -4.031590 -35.629300  -0.010960  -0.003625 -23.729100  -0.000302  -0.005643 -27.109500   0.293215  -0.567249 -27.454200  -0.001066  -0.001331 -18.278900   0.003122  -0.001104 -25.642200  -1.399000   2.903770 -38.524100  -0.004066  -0.005045 -25.651600   0.001901  -0.002797  10.641800   1.471800   3.779310  67.483200  10.674200  -4.774290   3.289590  -6.390420  11.715900 -16.107800 -16.779800  -3.226820 -33.484100  28.587000  62.648200  36.751700   0.001085  -0.006726  13.375900   0.001724   0.002204  29.584200   2.683680   4.714620  24.295700  -0.006662  -0.005443  17.007000  -0.001855   0.006243  26.582000  -0.736784  -1.473920  26.591700  -0.005149   0.000000  17.710000   0.001249  -0.000000  28.224800  -2.076190  -3.860560  34.201800  -0.006621  -0.002722  22.778500  -0.006206  -0.003969  37.805700  -2.689870  -3.461420  56.830500  -0.006584   0.010535  37.849100  -0.003987   0.001877   1.089320   1.038620   0.195249  -0.450028   1.458960  14.315800  -5.222390  -4.051740   4.861290   0.000000   0.000000   0.000000   0.546305   1.228440  -6.166590   0.591002   1.307680  -8.036340  -7.237900   0.231392   1.494900  -0.000000   0.000000  -0.000000
  0.183462  89.912600   0.536426  -0.460997  -0.098421  -1.906790  -0.341675   1.495210   0.327739  -0.692272   2.988400   0.664735   1.216750  -0.090375  -0.003447   1.997260  -0.183354   0.173848  -3.156550  -0.404123   3.247210 -72.272800  17.307600   1.220210  -2.629130  -4.341780 -16.641600  11.421400  -8.860540   8.171390  50.799200  41.606700 -83.846900 -19.908700  -0.007516   0.003652  -4.953740  -0.003864   0.001555 -30.199300   5.053690  -8.604620 -25.020700   0.002835   0.002357 -17.514600   0.001400   0.002155 -28.377500   2.168910  -4.025050 -35.638500  -0.010962  -0.003627 -23.735200  -0.000294  -0.005642 -27.109500   0.293442  -0.561976 -27.456700  -0.001062  -0.001330 -18.283000   0.003121  -0.001104 -25.645800  -1.398810   2.908970 -38.526200  -0.004064  -0.005045 -25.655400   0.001901  -0.002797  10.646800   1.471960   3.783610  67.457900  10.684000  -4.768480   3.288470  -6.399480  11.708100 -15.933100 -16.828300  -3.122620 -33.517100  28.625700  62.665100  36.723000   0.001082  -0.006731  13.361500   0.001727   0.002208  29.621400   2.703800   4.743340  24.327100  -0.006668  -0.005446  17.029000  -0.001855   0.006244  26.568200  -0.735088  -1.470690  26.577700  -0.005150   0.000000  17.700700   0.001246  -0.000000  28.224100  -2.079730  -3.867630  34.174200  -0.006616  -0.002708  22.760100  -0.006194  -0.003968  37.786500  -2.693460  -3.468450  56.802200  -0.006574   0.010536  37.830200  -0.003990   0.001877   1.089270   1.049720   0.195303  -0.448736   1.456570  14.309900  -5.222320  -4.056140   4.858020   0.000000   0.000000   0.000000   0.549034   1.288930  -6.166690   0.594815   1.265960  -8.040350  -7.237540   0.224097   1.485240   0.000000   0.000000   0.000000
  0.196011  89.912700   0.552597  -0.461365  -0.106880  -1.888550  -0.341840   1.495370   0.333825  -0.692745   2.988700   0.676922   1.213270  -0.054969  -0.003455   1.993340  -0.111829   0.192229  -3.174870  -0.396267   3.235150 -72.263800  17.327100   1.189960  -2.622340  -4.341780 -16.656300  11.423400  -8.874200   8.171570  50.787900  41.605800 -83.839400 -19.908700  -0.007516   0.003641  -4.953640  -0.003870   0.001559 -30.209600   5.052110  -8.600640 -25.028000   0.002846   0.002363 -17.519600   0.001405   0.002160 -28.377900   2.169000  -4.015240 -35.655400  -0.010964  -0.003633 -23.746500  -0.000275  -0.005639 -27.109500   0.293670  -0.556703 -27.465200  -0.001052  -0.001330 -18.291800   0.003117  -0.001104 -25.654400  -1.398620   2.914160 -38.534900  -0.004057  -0.005044 -25.664200   0.001901  -0.002798  10.657200   1.472110   3.790540  67.415900  10.701700  -4.759150   3.283500  -6.416590  11.694600 -15.650300 -16.906800  -2.956050 -33.569000  28.688000  62.707000  36.672000   0.001079  -0.006745  13.336000   0.001732   0.002216  29.657200   2.732720   4.786210  24.358400  -0.006682  -0.005453  17.050900  -0.001856   0.006247  26.548700  -0.729196  -1.459210  26.557900  -0.005155  -0.000000  17.687600   0.001240  -0.000000  28.223100  -2.085440  -3.878930  34.146600  -0.006606  -0.002676  22.741700  -0.006163  -0.003967  37.755300  -2.699400  -3.480050  56.756100  -0.006551   0.010537  37.799500  -0.003996   0.001882   1.089140   1.069010   0.195418  -0.447129   1.453210  14.301400  -5.222220  -4.063130   4.851970   0.000000   0.000000   0.000000   0.551757   1.349420  -6.166530   0.598721   1.224220  -8.049000  -7.237060   0.212708   1.471640  -0.000000   0.000000   0.000000
  0.205007  89.912800   0.566949  -0.461829  -0.116991  -1.875020  -0.342068   1.495360   0.344590  -0.693606   2.988640   0.698474   1.206970  -0.018212  -0.003473   1.983500  -0.037593   0.209936  -3.195310  -0.393547   3.217440 -72.258300  17.337000   1.170240  -2.615010  -4.340780 -16.664100  11.419900  -8.874170   8.171390  50.776700  41.601100 -83.830900 -19.908700  -0.007531   0.003646  -4.953500  -0.003883   0.001565 -30.221200   5.058070  -8.609880 -25.038000   0.002855   0.002371 -17.525200   0.001413   0.002170 -28.378000   2.168950  -4.009830 -35.674300  -0.010962  -0.003640 -23.759100  -0.000252  -0.005635 -27.109400   0.293086  -0.565558 -27.484300  -0.001035  -0.001330 -18.306200   0.003113  -0.001104 -25.668600  -1.398670   2.910310 -38.555600  -0.004046  -0.005042 -25.678300   0.001901  -0.002800  10.669500   1.471860   3.793610  67.384200  10.721600  -4.750820   3.272790  -6.434550  11.682700 -15.447800 -16.964000  -2.845180 -33.604100  28.735800  62.772600  36.625100   0.001086  -0.006772  13.312600   0.001741   0.002224  29.645900   2.743920   4.807130  24.349900  -0.006701  -0.005462  17.045000  -0.001859   0.006252  26.539800  -0.717359  -1.435960  26.548700  -0.005167   0.000000  17.682000   0.001229  -0.000044  28.222300  -2.090620  -3.888780  34.146800  -0.006597  -0.002627  22.741800  -0.006115  -0.003966  37.726300  -2.705250  -3.491280  56.713200  -0.006516   0.010533  37.771000  -0.004005   0.001893   1.085660   1.084920   0.195573  -0.447817   1.452480  14.297400  -5.220930  -4.068020   4.844140   0.000000   0.000000  -0.000000   0.550109   1.323690  -6.161430   0.592205   1.269420  -8.060760  -7.236880   0.205435   1.465520   0.000000   0.000000   0.000000
